<?xml version="1.0" encoding="utf-8"?>
<!-- Generator: Adobe Illustrator 15.1.0, SVG Export Plug-In . SVG Version: 6.00 Build 0)  -->
<!DOCTYPE svg PUBLIC "-//W3C//DTD SVG 1.1//EN" "http://www.w3.org/Graphics/SVG/1.1/DTD/svg11.dtd">
<svg version="1.1" id="Layer_1" xmlns="http://www.w3.org/2000/svg" xmlns:xlink="http://www.w3.org/1999/xlink" x="0px" y="0px"
	 width="490.276px" height="389.179px" viewBox="0 0 490.276 389.179" enable-background="new 0 0 490.276 389.179"
	 xml:space="preserve">
<g>
	<path fill="#20B7E8" d="M395.689,199.771c-13.981,0-27.262,3.052-39.216,8.52l-13.521-35.417
		c11.112-2.237,18.19-6.854,21.601-14.072c2.992-6.333,3.421-12.676,1.239-18.345c-2.311-6.005-7.506-10.946-14.628-13.914
		c-9.738-4.058-20.803-4.639-31.34-4.662c-3.037,0-5.631,1.093-7.501,3.162c-1.683,1.862-2.622,4.362-2.683,7.02
		c-0.638,0.002-1.262,0-1.853-0.02c-11.504-0.372-23.008-0.745-34.513-1.118c2.196-8.571,4.394-17.142,6.59-25.712
		c1.463-5.706,5.021-13.261,4.919-19.193c-0.048-2.755-1.065-5.091-2.711-7.021c-3.453-10.747-11.296-22.603-16.194-30.648
		c-8.725-14.331-22.016-15.622-36.235-9.019c-29.041,13.488-57.58,28.113-86.343,42.156c-12.219,5.966-27.913,10.981-28.973,26.734
		c-0.942,14.007,12.333,30.914,18.513,42.929c3.564,6.929,8.992,10.265,15.444,11.205c1.352,1.976,3.056,3.902,5.164,5.734
		c4.869,4.233,9.987,8.266,15.231,12.187l-25.692,33.073C128.819,204.877,112.264,200,94.589,200C42.433,200,0,242.43,0,294.583
		c0,52.16,42.433,94.596,94.589,94.596c46.209,0,84.779-33.312,92.975-77.186c0.599,0.324,1.215,0.642,1.869,0.946
		c17.075,8.539,27.684-3.354,35.396-16.927l0.118-0.079c0.137-0.098,0.271-0.197,0.361-0.272c0.102-0.077,0.201-0.158,0.316-0.257
		c0.123-0.108,0.244-0.217,0.328-0.299l0.115-0.104l104.54-104.539l10.251,26.86c-24.052,17.167-39.763,45.299-39.763,77.033
		c0,52.159,42.435,94.594,94.594,94.594c52.155,0,94.587-42.435,94.587-94.594C490.276,242.202,447.845,199.771,395.689,199.771z
		 M395.689,371.14c-42.337,0-76.781-34.444-76.781-76.783c0-24.086,11.158-45.606,28.567-59.693l10.227,26.798
		c0.299,0.776,0.71,1.516,1.232,2.212c4.406,5.774,19.367,25.126,26.855,31.69l7.595,6.645c1.625,1.422,3.705,2.204,5.857,2.204
		c2.572,0,5.018-1.107,6.708-3.037c1.567-1.788,2.343-4.081,2.186-6.455c-0.157-2.375-1.229-4.546-3.019-6.112l-7.596-6.649
		c-5.16-4.512-17.608-20.187-23.636-28.059l-11.042-28.924c9.965-4.736,21.099-7.396,32.846-7.396
		c42.335,0,76.777,34.442,76.777,76.777C472.467,336.696,438.024,371.14,395.689,371.14z M345.693,149.761
		c-0.194,0.121-0.432,0.272-0.644,0.41c-0.154,0.101-0.29,0.19-0.296,0.197l-0.116,0.061c-1.353,0.704-1.353,0.704-3.314,1.242
		c-2.08,0.572-4.015,0.982-5.981,1.265l-3.655-9.577c3.411,0.358,6.429,0.948,9.319,1.815l0.213,0.064
		c2.178,0.652,2.631,0.788,3.83,1.497l0.256,0.183c0.396,0.284,0.663,0.473,0.867,0.607c0.045,0.047,0.088,0.094,0.131,0.139
		c-0.062,0.269-0.133,0.609-0.222,1.044l-0.063,0.247C345.869,149.374,345.806,149.555,345.693,149.761z M94.589,371.371
		c-42.337,0-76.781-34.446-76.781-76.787c0-42.333,34.444-76.773,76.781-76.773c13.56,0,26.3,3.547,37.368,9.741L86.512,286.05
		c-2.095,2.697-2.458,6.413-0.922,9.466c1.522,3.022,4.569,4.899,7.952,4.899l77.715-1.754
		C169.129,339.114,135.556,371.371,94.589,371.371z M170.117,280.878l-58.052,1.312l34.338-44.205
		C158.529,249.094,167.069,264.042,170.117,280.878z M193.634,252.365c-2.283,4.333-5.443,9.5-8.453,15.012
		c-5.113-16.992-14.886-31.984-27.829-43.487l20.928-26.941l17.768,50.756C195.25,249.265,194.447,250.822,193.634,252.365z
		 M204.92,206.231c2.614,1.938,5.513,4.287,8.611,6.758c-2.193,4.113-4.314,8.281-6.403,12.465l-8.275-23.642
		C200.892,203.276,202.918,204.748,204.92,206.231z M261.889,225.78c1.544-1.374,3.042-3.045,4.484-5.053
		c10.911-13.976,2.609-25.686-8.735-35.194h52.712l-57.104,57.102C256.235,237.053,259.145,231.443,261.889,225.78z M240.061,124.17
		c-1.051,4.099-2.102,8.198-3.152,12.297c-0.159,0.622-0.24,1.22-0.251,1.795c-2.26,6.664-1.931,15.537,0.8,19.325
		c4.464,6.188,16.31,4.38,23.109,4.601l33.604,1.089c0.588,1.067,1.402,2.061,2.439,2.938c0.621,0.526,1.276,1.029,1.962,1.509
		h-65.227c-10.497-7.929-20.889-16.223-31.527-24.092c5.078-2.88,9.527-5.443,12.937-7.108
		C223.191,132.407,231.626,128.289,240.061,124.17z"/>
	<path fill="#20B7E8" d="M268.874,38.693c0.461,10.55,0.232,5.305,0.002,0.03c2.202,49.626,80.72,45.762,78.576-3.29
		c-2.143-49.009-80.714-46.471-78.579,3.229C268.644,33.388,268.414,28.142,268.874,38.693z"/>
</g>
</svg>
